<mxfile host="app.diagrams.net" modified="2024-08-16T09:48:05.590Z" agent="Mozilla/5.0 (Macintosh; Intel Mac OS X 10_15_7) AppleWebKit/537.36 (KHTML, like Gecko) Chrome/127.0.0.0 Safari/537.36" etag="FfawrBQ88RqtLJTbYD15" version="24.4.10" type="github">
  <diagram name="第 1 页" id="ozGO03fqMarl44t-PGcD">
    <mxGraphModel dx="759" dy="411" grid="1" gridSize="10" guides="1" tooltips="1" connect="1" arrows="1" fold="1" page="1" pageScale="1" pageWidth="827" pageHeight="1169" math="1" shadow="0">
      <root>
        <mxCell id="0" />
        <mxCell id="1" parent="0" />
        <mxCell id="OQLEGkeluavSGkkZBTdm-1" value="" style="whiteSpace=wrap;html=1;aspect=fixed;" vertex="1" parent="1">
          <mxGeometry x="180" y="260" width="80" height="80" as="geometry" />
        </mxCell>
        <mxCell id="OQLEGkeluavSGkkZBTdm-3" value="" style="endArrow=none;dashed=1;html=1;rounded=0;strokeWidth=2;" edge="1" parent="1">
          <mxGeometry width="50" height="50" relative="1" as="geometry">
            <mxPoint x="400" y="490" as="sourcePoint" />
            <mxPoint x="400" y="140" as="targetPoint" />
          </mxGeometry>
        </mxCell>
        <mxCell id="OQLEGkeluavSGkkZBTdm-4" value="" style="whiteSpace=wrap;html=1;aspect=fixed;strokeWidth=3;" vertex="1" parent="1">
          <mxGeometry x="300" y="260" width="80" height="80" as="geometry" />
        </mxCell>
        <mxCell id="OQLEGkeluavSGkkZBTdm-5" value="" style="rounded=0;whiteSpace=wrap;html=1;rotation=0;strokeWidth=3;" vertex="1" parent="1">
          <mxGeometry x="430" y="250" width="120" height="190" as="geometry" />
        </mxCell>
        <mxCell id="OQLEGkeluavSGkkZBTdm-6" value="" style="endArrow=classic;html=1;rounded=0;" edge="1" parent="1">
          <mxGeometry width="50" height="50" relative="1" as="geometry">
            <mxPoint x="150" y="300" as="sourcePoint" />
            <mxPoint x="180" y="299.5" as="targetPoint" />
          </mxGeometry>
        </mxCell>
        <mxCell id="OQLEGkeluavSGkkZBTdm-7" value="" style="endArrow=classic;html=1;rounded=0;entryX=0.5;entryY=0;entryDx=0;entryDy=0;" edge="1" parent="1" target="OQLEGkeluavSGkkZBTdm-1">
          <mxGeometry width="50" height="50" relative="1" as="geometry">
            <mxPoint x="220" y="180" as="sourcePoint" />
            <mxPoint x="235" y="200" as="targetPoint" />
          </mxGeometry>
        </mxCell>
        <mxCell id="OQLEGkeluavSGkkZBTdm-8" value="" style="endArrow=classic;html=1;rounded=0;" edge="1" parent="1">
          <mxGeometry width="50" height="50" relative="1" as="geometry">
            <mxPoint x="219.69" y="340" as="sourcePoint" />
            <mxPoint x="220" y="410" as="targetPoint" />
          </mxGeometry>
        </mxCell>
        <mxCell id="OQLEGkeluavSGkkZBTdm-16" value="" style="group" vertex="1" connectable="0" parent="1">
          <mxGeometry x="215" y="410" width="10" height="10" as="geometry" />
        </mxCell>
        <mxCell id="OQLEGkeluavSGkkZBTdm-11" value="" style="whiteSpace=wrap;html=1;aspect=fixed;" vertex="1" parent="OQLEGkeluavSGkkZBTdm-16">
          <mxGeometry width="10" height="10" as="geometry" />
        </mxCell>
        <mxCell id="OQLEGkeluavSGkkZBTdm-13" value="" style="endArrow=none;html=1;rounded=0;exitX=0;exitY=0.5;exitDx=0;exitDy=0;entryX=1;entryY=0.5;entryDx=0;entryDy=0;" edge="1" parent="OQLEGkeluavSGkkZBTdm-16" source="OQLEGkeluavSGkkZBTdm-11" target="OQLEGkeluavSGkkZBTdm-11">
          <mxGeometry width="50" height="50" relative="1" as="geometry">
            <mxPoint x="76" y="-60" as="sourcePoint" />
            <mxPoint x="126" y="-110" as="targetPoint" />
          </mxGeometry>
        </mxCell>
        <mxCell id="OQLEGkeluavSGkkZBTdm-14" value="" style="endArrow=none;html=1;rounded=0;exitX=0.5;exitY=0;exitDx=0;exitDy=0;entryX=0.5;entryY=1;entryDx=0;entryDy=0;" edge="1" parent="OQLEGkeluavSGkkZBTdm-16" source="OQLEGkeluavSGkkZBTdm-11" target="OQLEGkeluavSGkkZBTdm-11">
          <mxGeometry width="50" height="50" relative="1" as="geometry">
            <mxPoint x="6" y="20" as="sourcePoint" />
            <mxPoint x="26" y="20" as="targetPoint" />
          </mxGeometry>
        </mxCell>
        <mxCell id="OQLEGkeluavSGkkZBTdm-19" value="" style="endArrow=classic;html=1;rounded=0;entryX=0;entryY=0.5;entryDx=0;entryDy=0;" edge="1" parent="1" target="OQLEGkeluavSGkkZBTdm-11">
          <mxGeometry width="50" height="50" relative="1" as="geometry">
            <mxPoint x="91" y="415" as="sourcePoint" />
            <mxPoint x="215" y="414.71" as="targetPoint" />
          </mxGeometry>
        </mxCell>
        <mxCell id="OQLEGkeluavSGkkZBTdm-20" value="" style="endArrow=classic;html=1;rounded=0;entryX=0.004;entryY=0.867;entryDx=0;entryDy=0;entryPerimeter=0;exitX=1;exitY=0.5;exitDx=0;exitDy=0;" edge="1" parent="1" source="OQLEGkeluavSGkkZBTdm-11" target="OQLEGkeluavSGkkZBTdm-5">
          <mxGeometry width="50" height="50" relative="1" as="geometry">
            <mxPoint x="230" y="420" as="sourcePoint" />
            <mxPoint x="430.9999999999999" y="414.5199999999999" as="targetPoint" />
          </mxGeometry>
        </mxCell>
        <mxCell id="OQLEGkeluavSGkkZBTdm-21" value="" style="endArrow=classic;html=1;rounded=0;entryX=0.5;entryY=0;entryDx=0;entryDy=0;" edge="1" parent="1" target="OQLEGkeluavSGkkZBTdm-5">
          <mxGeometry width="50" height="50" relative="1" as="geometry">
            <mxPoint x="220" y="180" as="sourcePoint" />
            <mxPoint x="490" y="240" as="targetPoint" />
            <Array as="points">
              <mxPoint x="490" y="180" />
            </Array>
          </mxGeometry>
        </mxCell>
        <mxCell id="OQLEGkeluavSGkkZBTdm-23" value="" style="endArrow=classic;html=1;rounded=0;entryX=0.5;entryY=0;entryDx=0;entryDy=0;" edge="1" parent="1">
          <mxGeometry width="50" height="50" relative="1" as="geometry">
            <mxPoint x="340" y="220" as="sourcePoint" />
            <mxPoint x="339.65999999999997" y="260" as="targetPoint" />
          </mxGeometry>
        </mxCell>
        <mxCell id="OQLEGkeluavSGkkZBTdm-24" value="" style="endArrow=classic;html=1;rounded=0;entryX=0.5;entryY=0;entryDx=0;entryDy=0;" edge="1" parent="1">
          <mxGeometry width="50" height="50" relative="1" as="geometry">
            <mxPoint x="490" y="440" as="sourcePoint" />
            <mxPoint x="489.65999999999997" y="480" as="targetPoint" />
          </mxGeometry>
        </mxCell>
        <mxCell id="OQLEGkeluavSGkkZBTdm-25" value="" style="endArrow=classic;html=1;rounded=0;" edge="1" parent="1">
          <mxGeometry width="50" height="50" relative="1" as="geometry">
            <mxPoint x="380" y="300.16" as="sourcePoint" />
            <mxPoint x="430" y="300" as="targetPoint" />
          </mxGeometry>
        </mxCell>
        <mxCell id="OQLEGkeluavSGkkZBTdm-27" value="&lt;font style=&quot;font-size: 14px;&quot; face=&quot;Times New Roman&quot;&gt;k&lt;/font&gt;" style="text;strokeColor=none;align=center;fillColor=none;html=1;verticalAlign=middle;whiteSpace=wrap;rounded=0;fontSize=14;" vertex="1" parent="1">
          <mxGeometry x="310" y="193" width="60" height="30" as="geometry" />
        </mxCell>
        <mxCell id="OQLEGkeluavSGkkZBTdm-28" value="&lt;font style=&quot;font-size: 14px;&quot; face=&quot;Times New Roman&quot;&gt;k&lt;/font&gt;" style="text;strokeColor=none;align=center;fillColor=none;html=1;verticalAlign=middle;whiteSpace=wrap;rounded=0;fontSize=14;" vertex="1" parent="1">
          <mxGeometry x="111" y="285" width="60" height="30" as="geometry" />
        </mxCell>
      </root>
    </mxGraphModel>
  </diagram>
</mxfile>
